<svg xmlns="http://www.w3.org/2000/svg" width="44" height="44" viewBox="0 0 44 44">
  <path fill="rgb(200, 212, 232)" fill-rule="evenodd" d="M22,0 C34.131,0 44,9.869 44,22 C44,34.131 34.131,44 22,44 C9.869,44 0,34.131 0,22 C0,9.869 9.869,0 22,0 Z M22,1.5 C10.696,1.5 1.5,10.696 1.5,22 C1.5,33.304 10.696,42.5 22,42.5 C33.304,42.5 42.5,33.304 42.5,22 C42.5,10.696 33.304,1.5 22,1.5 Z M22.96,19.4 C25.7435151,19.4 28,21.6564849 28,24.44 L28,32.6 L16,32.6 L16,24.44 C16,21.6564849 18.2564849,19.4 21.04,19.4 L22.96,19.4 Z M14.8,21.8 C15.0366483,21.805458 15.2711873,21.8458957 15.496,21.92 C15.0939718,22.5982464 14.8594511,23.3609981 14.8098839,24.145089 L14.8,24.44 L14.8,29 L10,29 L10,24.2 C10,22.9297451 10.986839,21.8899788 12.2356813,21.8055369 L12.4,21.8 L14.8,21.8 Z M31.6,21.8 C32.8702549,21.8 33.9100212,22.786839 33.9944631,24.0356813 L34,24.2 L34,29 L29.2,29 L29.2,24.44 C29.1965617,23.5530065 28.9562817,22.6830272 28.504,21.92 C28.6726096,21.8644218 28.8466901,21.827781 29.0230283,21.8106317 L29.2,21.8 L31.6,21.8 Z M13.6,15.8 C14.9254834,15.8 16,16.8745166 16,18.2 C16,19.5254834 14.9254834,20.6 13.6,20.6 C12.2745166,20.6 11.2,19.5254834 11.2,18.2 C11.2,16.8745166 12.2745166,15.8 13.6,15.8 Z M30.4,15.8 C31.7254834,15.8 32.8,16.8745166 32.8,18.2 C32.8,19.5254834 31.7254834,20.6 30.4,20.6 C29.0745166,20.6 28,19.5254834 28,18.2 C28,16.8745166 29.0745166,15.8 30.4,15.8 Z M22,11 C23.9882251,11 25.6,12.6117749 25.6,14.6 C25.6,16.5882251 23.9882251,18.2 22,18.2 C20.0117749,18.2 18.4,16.5882251 18.4,14.6 C18.4,12.6117749 20.0117749,11 22,11 Z"/>
</svg>
