<svg xmlns="http://www.w3.org/2000/svg" width="44" height="44" viewBox="0 0 44 44">
  <path fill="rgb(200, 212, 232)" fill-rule="evenodd" d="M22,0 C34.131,0 44,9.869 44,22 C44,34.131 34.131,44 22,44 C9.869,44 0,34.131 0,22 C0,9.869 9.869,0 22,0 Z M22,1.5 C10.696,1.5 1.5,10.696 1.5,22 C1.5,33.304 10.696,42.5 22,42.5 C33.304,42.5 42.5,33.304 42.5,22 C42.5,10.696 33.304,1.5 22,1.5 Z M13.6,13.6 L13.6,29.2 C13.6,30.4702549 14.586839,31.5100212 15.8356813,31.5944631 L16,31.6 L29.2,31.6 L29.1944631,31.7643187 C29.1136926,32.9588635 28.1588635,33.9136926 26.9643187,33.9944631 L26.8,34 L12.4,34 C11.1297451,34 10.0899788,33.013161 10.0055369,31.7643187 L10,31.6 L10,16 C10,14.7297451 10.986839,13.6899788 12.2356813,13.6055369 L12.4,13.6 L13.6,13.6 Z M26.8,10 L34,17.2 L34,28 C34,29.2702549 33.013161,30.3100212 31.7643187,30.3944631 L31.6,30.4 L17.2,30.4 C15.9297451,30.4 14.8899788,29.413161 14.8055369,28.1643187 L14.8,28 L14.8,12.4 C14.8,11.1297451 15.786839,10.0899788 17.0356813,10.0055369 L17.2,10 L26.8,10 Z M28.6,26.8 L17.8,26.8 C17.4686292,26.8 17.2,27.0686292 17.2,27.4 C17.2,27.6982338 17.4175896,27.9456468 17.7026769,27.992147 L17.8,28 L28.6,28 C28.9313708,28 29.2,27.7313708 29.2,27.4 C29.2,27.1017662 28.9824104,26.8543532 28.6973231,26.807853 L28.6,26.8 Z M28.6,24.4 L17.8,24.4 C17.4686292,24.4 17.2,24.6686292 17.2,25 C17.2,25.2982338 17.4175896,25.5456468 17.7026769,25.592147 L17.8,25.6 L28.6,25.6 C28.9313708,25.6 29.2,25.3313708 29.2,25 C29.2,24.7017662 28.9824104,24.4543532 28.6973231,24.407853 L28.6,24.4 Z M28.6,22 L17.8,22 C17.4686292,22 17.2,22.2686292 17.2,22.6 C17.2,22.8982338 17.4175896,23.1456468 17.7026769,23.192147 L17.8,23.2 L28.6,23.2 C28.9313708,23.2 29.2,22.9313708 29.2,22.6 C29.2,22.3017662 28.9824104,22.0543532 28.6973231,22.007853 L28.6,22 Z M22.6,19.6 L17.8,19.6 C17.4686292,19.6 17.2,19.8686292 17.2,20.2 C17.2,20.4982338 17.4175896,20.7456468 17.7026769,20.792147 L17.8,20.8 L22.6,20.8 C22.9313708,20.8 23.2,20.5313708 23.2,20.2 C23.2,19.9017662 22.9824104,19.6543532 22.6973231,19.607853 L22.6,19.6 Z M26.8,11.2 L26.8,17.2 L32.896,17.2 L26.8,11.2 Z"/>
</svg>
