<svg xmlns="http://www.w3.org/2000/svg" width="44" height="44" viewBox="0 0 44 44">
  <path fill="rgb(200, 212, 232)" fill-rule="evenodd" d="M22,0 C34.131,0 44,9.869 44,22 C44,34.131 34.131,44 22,44 C9.869,44 0,34.131 0,22 C0,9.869 9.869,0 22,0 Z M22,1.5 C10.696,1.5 1.5,10.696 1.5,22 C1.5,33.304 10.696,42.5 22,42.5 C33.304,42.5 42.5,33.304 42.5,22 C42.5,10.696 33.304,1.5 22,1.5 Z M36,17.636 L36,32.4615385 C36,33.3112073 35.3112073,34 34.4615385,34 L9.53846154,34 C8.68879269,34 8,33.3112073 8,32.4615385 L8,17.636 L36,17.636 Z M31.4529915,19.8181818 C30.5938818,19.8181818 29.8974359,20.5345262 29.8974359,21.4181818 C29.8974359,21.7148681 29.9759443,21.9926939 30.1127586,22.2308793 L26.2046763,26.2504991 C25.9381072,26.0300807 25.5994136,25.8981821 25.2307692,25.8981821 C24.6337741,25.8981821 24.115327,26.2440946 23.8545423,26.7516876 L20.5640508,24.8713727 L20.5641026,24.8581812 L20.5641026,24.8581812 C20.5641026,23.9745256 19.8676566,23.2581812 19.008547,23.2581812 C18.1494374,23.2581812 17.4529915,23.9745256 17.4529915,24.8581812 C17.4529915,24.9869587 17.4677826,25.1121829 17.4957127,25.2321544 L13.7906196,28.1962805 C13.5196306,27.9604048 13.1691253,27.8181818 12.7863248,27.8181818 C11.9272152,27.8181818 11.2307692,28.5345262 11.2307692,29.4181818 C11.2307692,30.3018374 11.9272152,31.0181818 12.7863248,31.0181818 C13.6454344,31.0181818 14.3418803,30.3018374 14.3418803,29.4181818 C14.3418803,29.2183349 14.3062585,29.0270457 14.2411895,28.8506651 L17.8699015,25.9483014 C18.1538956,26.2619904 18.5589463,26.4581812 19.008547,26.4581812 C19.5812867,26.4581812 20.0817315,26.1398059 20.3517236,25.6657318 L23.678,27.566 L23.6815707,27.6438147 C23.7530986,28.4592206 24.4193879,29.0981821 25.2307692,29.0981821 C26.0898788,29.0981821 26.7863248,28.3818377 26.7863248,27.4981821 C26.7863248,27.2863522 26.746303,27.0841369 26.6736127,26.8990995 L30.662735,22.7966257 C30.894334,22.9373992 31.1644909,23.0181818 31.4529915,23.0181818 C32.3121011,23.0181818 33.008547,22.3018374 33.008547,21.4181818 C33.008547,20.5345262 32.3121011,19.8181818 31.4529915,19.8181818 Z M34.4615385,10 C35.3112073,10 36,10.6887927 36,11.5384615 L36,16.545 L8,16.545 L8,11.5384615 C8,10.6887927 8.68879269,10 9.53846154,10 L34.4615385,10 Z M30.8547009,12.7272727 L10.9230769,12.7272727 C10.5336454,12.7272727 10.2118041,13.0166613 10.1608683,13.3921234 L10.1538462,13.4965035 L10.1538462,13.5944056 C10.1538462,13.9838371 10.4432348,14.3056784 10.8186969,14.3566142 L10.9230769,14.3636364 L30.8547009,14.3636364 L30.8547009,12.7272727 Z M33.0769231,12.7272727 L31.6923077,12.7272727 L31.6923077,14.3636364 L33.0769231,14.3636364 C33.4663546,14.3636364 33.7881959,14.0742478 33.8391317,13.6987857 L33.8461538,13.5944056 L33.8461538,13.4965035 C33.8461538,13.0716691 33.5017575,12.7272727 33.0769231,12.7272727 Z"/>
</svg>
